<?xml version="1.0" encoding="utf-8"?>
<!-- Generator: Adobe Illustrator 21.0.0, SVG Export Plug-In . SVG Version: 6.00 Build 0)  -->
<svg version="1.1" baseProfile="tiny" id="Camada_1"
	 xmlns="http://www.w3.org/2000/svg" xmlns:xlink="http://www.w3.org/1999/xlink" x="0px" y="0px" viewBox="0 0 300 300"
	 xml:space="preserve">
<rect x="67" y="18.5" fill="#459B63" width="175.1" height="181.8"/>
<rect x="55.1" y="6.6" fill="none" width="196.6" height="201.5"/>
<rect x="55.1" y="6.6" fill="#0B090C" width="11.9" height="11.9"/>
<rect x="79.2" y="30.9" fill="#0B090C" stroke="#0B090C" stroke-miterlimit="10" width="12.2" height="11.9"/>
<rect x="217.8" y="176" fill="#0B090C" stroke="#0B090C" stroke-miterlimit="10" width="12.2" height="11.5"/>
<rect x="79.2" y="176" fill="#0B090C" stroke="#0B090C" stroke-miterlimit="10" width="11.9" height="11.5"/>
<polygon fill="#0B090C" points="107.9,91.1 107.9,103.5 133.8,103.5 133.8,67 159.7,67 159.7,55.3 121.2,55.3 121,91.1 "/>
<polygon fill="#0B090C" points="181.3,67.2 194.2,67.2 194.2,114.7 169.6,114.7 169.6,139.1 145.7,139.1 145.7,127.8 157.4,127.3 
	157.4,103.5 181.5,103.5 "/>
<polygon fill="#0D0B0E" points="157.4,151.5 169.9,151.5 169.9,176 145.7,176 145.7,163.7 157.4,163.7 "/>
<polygon fill="#0B090C" points="251.7,6.6 241.9,6.6 241.9,199.9 55.1,200.3 55.1,208.1 251.7,208.1 "/>
<rect x="217.6" y="30.9" fill="#0B090C" stroke="#0B090C" stroke-miterlimit="10" width="12.6" height="11.9"/>
<rect x="67.2" y="6.8" fill="none" width="174.9" height="11.9"/>
<polygon fill="none" points="55.5,18.8 67.2,18.8 67,199.9 55.5,199.9 "/>
<rect x="133.6" y="139.5" fill="none" width="24.1" height="23.9"/>
<polygon fill="#453486" points="121.5,91.8 97,91.8 97,54.1 109.9,54.1 110.2,42.8 171.1,42.8 171.1,55.8 182.1,55.7 182.1,103.6 
	157.8,103.6 157.7,127.8 133.7,127.8 133.9,104.3 145.8,104.2 145.8,91.8 157.9,91.8 157.8,55.3 121.6,55.5 "/>
<rect x="67" y="6.6" fill="#453486" width="174.9" height="11.9"/>
<rect x="55.1" y="18.5" fill="#453486" width="12" height="181.8"/>
<rect x="133.6" y="139.5" fill="#453486" width="24.1" height="24.2"/>
<g>
	<path fill="#453486" d="M68.5,222.8l13.6,17.9l13.6-17.9h1.4v28.2h-6.9v-10.4l-8.1,10.4L74,240.6v10.4h-6.9v-28.2H68.5z"/>
	<path fill="#453486" d="M99.5,222.8h7.8l5.4,9l5.4-9h7.8l-9.3,16.1v12h-7.7v-12L99.5,222.8z"/>
	<path fill="#453486" d="M132.5,242c0,1,1.2,2.1,2.6,2.2l0,0h0.4c1.4,0,3-1.1,3-2.2c0-1.9-3-2.1-5.5-2.9c-3.9-1.2-7.2-4-7.2-7.9
		c0-4.8,4.1-8.7,9.8-8.7c5.1,0,9,3.4,9.7,7.9l0.1,0.5l-7.2,1.5c0-1.7-0.7-3-2.5-3c-1.4,0-2.5,1-2.5,2.2c0,1.9,2.9,2.5,5.2,3.1
		c4,1,7.4,3.7,7.4,7.8c0,4.8-4.6,8.7-10.2,8.7c-5.1,0-9.4-3.4-10.1-7.9l-0.1-0.6l7.2-1.5V242z"/>
	<path fill="#453486" d="M147.1,222.8H169v6.8h-7.2l0.3,21.3h-7.8l-0.1-21.3h-7.2V222.8z"/>
	<path fill="#453486" d="M171.4,222.8h19.4v6.9h-12.2v3.8h9.4v6.9h-9.4v3.8h12.2v6.8h-19.4V222.8z"/>
	<path fill="#453486" d="M193.3,250.9l0-28.1h10.3c1.7,0,3.3,0.2,4.9,0.7c1.4,0.5,2.6,1.2,3.6,2.2c1.8,1.7,2.9,3.4,2.9,6.5v0.7
		c0,1.9-0.6,3.8-1.9,5.5c-0.9,1.2-1.6,1.8-3,2.4l6.8,10.1h-8.4l-8.4-11v11H193.3z M207.8,232.9c0-0.9-0.4-1.6-1.1-2.3
		c-0.7-0.6-2.3-0.9-3.6-0.9h-3v6.5h2.5v0h1.5C206.1,236.2,207.8,234.8,207.8,232.9z"/>
	<path fill="#453486" d="M214.1,222.8h7.8l5.4,9l5.4-9h7.8l-9.3,16.1v12h-7.7v-12L214.1,222.8z"/>
	<path fill="#459B63" d="M118.8,265.5c4.5,0.1,8.2,2,10.7,4.3l0.4,0.4l-5.2,4.9l-0.5-0.4c-1.7-1.6-3.6-2.4-5.9-2.4
		c-2.3,0-4.3,0.7-5.9,2.2c-1.7,1.5-2.5,3.2-2.5,5.2c0,2,0.8,3.7,2.5,5.2c1.6,1.4,3.6,2.2,5.9,2.2c3.1,0,5.7-1.5,7.1-3.5h-8v-6.2
		h16.3l0,0.5c0.4,5.3-1.4,9.1-4.3,11.9c-3.1,2.8-6.8,4.2-11.1,4.2c-4.3,0-8.1-1.4-11.1-4.2c-2.9-2.8-4.4-6.1-4.4-10.1
		c0-3.9,1.5-7.3,4.4-10.1c3-2.8,6.8-4.2,11.1-4.2L118.8,265.5L118.8,265.5z"/>
	<path fill="#459B63" d="M136.2,265.6h19.4v6.9h-12.2v3.8h9.4v6.9h-9.4v3.8h12.2v6.8h-19.4V265.6z"/>
	<path fill="#459B63" d="M158.1,265.6h19.4v6.9h-12.2v3.8h9.4v6.9h-9.4v3.8h12.2v6.8h-19.4V265.6z"/>
	<path fill="#459B63" d="M179.9,265.7h6.9v10.8l7.5-10.8h7.9l-8.9,14.2l10.4,13.9h-8.4l-8.5-10.5v10.5h-6.9V265.7z"/>
</g>
</svg>
